# xmcd CD database file
#
# Track frame offsets:
#	150
#	14754
#	30025
#	46428
#	62609
#	81922
#	96116
#	116024
#	133459
#	150168
#	167796
#	184199
#	201946
#	219007
#
# Disc length: 3137 seconds
#
# Revision: 0
# Processed by: cddbd v1.5.2PL0 Copyright (c) Steve Scherf et al.
# Submitted via: CDex 1.79
#
DISCID=b70c3f0e
DTITLE=RW Hampton - Austin To Boston
DYEAR=2010
DGENRE=Country
TTITLE0=Back Home
TTITLE1=Crazy Little Thing Called Love
TTITLE2=Cowboy's Prayer
TTITLE3=Dream On Little Dreamer
TTITLE4=Danny Boy
TTITLE5=Driftin Again
TTITLE6=Lady
TTITLE7=Wherever You Are
TTITLE8=Rodeo Man
TTITLE9=You Don't Know Me
TTITLE10=Job for A Cowboy
TTITLE11=Kansas
TTITLE12=Home
TTITLE13=Short Grass
EXTD=YEAR: 2010
EXTT0=
EXTT1=
EXTT2=
EXTT3=
EXTT4=
EXTT5=
EXTT6=
EXTT7=
EXTT8=
EXTT9=
EXTT10=
EXTT11=
EXTT12=
EXTT13=
PLAYORDER=
